<?xml version="1.0" encoding="UTF-8"?>
<svg xmlns="http://www.w3.org/2000/svg" xmlns:xlink="http://www.w3.org/1999/xlink" width="525pt" height="299.999988pt" viewBox="0 0 525 299.999988" version="1.2">
<g id="surface1">
<path style="fill:none;stroke-width:2.618111;stroke-linecap:butt;stroke-linejoin:miter;stroke:rgb(100%,56.858826%,30.198669%);stroke-opacity:1;stroke-miterlimit:4;" d="M 81.518977 57.99882 L 83.428771 43.060267 L 58.374919 43.060267 L 65.756099 -13.028521 L 48.460981 -13.028521 L 39.166861 57.99882 Z M 129.222921 -14.296473 C 110.102959 -14.296473 100.808839 -3.737547 97.542997 20.850655 L 97.074201 24.295835 C 93.808359 48.884037 102.366249 59.266772 121.486211 59.266772 C 140.603027 59.266772 149.809052 48.707846 153.074893 24.119643 L 153.54369 20.674463 C 156.809531 -3.913739 148.339737 -14.296473 129.222921 -14.296473 Z M 121.929837 44.350244 C 113.749501 44.350244 113.016417 36.701629 114.658777 24.295835 L 115.105549 20.850655 C 116.751055 8.466885 119.485175 0.642079 127.665511 0.642079 L 128.666029 0.642079 C 136.868389 0.642079 137.601473 8.290693 135.959113 20.674463 L 135.512341 24.119643 C 133.866835 36.503414 131.132715 44.350244 122.930355 44.350244 Z M 191.138626 59.266772 C 204.61101 59.266772 211.614636 55.355942 217.082876 50.907097 L 221.374407 18.472065 L 195.496228 18.472065 L 193.495192 33.410617 L 202.053082 33.410617 L 200.876372 42.525399 C 199.051528 43.525917 195.694444 44.350244 193.051566 44.350244 L 192.051048 44.350244 C 183.401916 44.350244 181.75641 36.701629 183.401916 24.295835 L 183.845542 20.850655 C 185.491048 8.558127 188.31641 0.642079 196.962396 0.642079 L 197.962914 0.642079 C 204.787202 0.642079 205.78772 6.088295 204.699106 14.293801 L 221.994224 14.293801 L 222.463021 10.735355 C 224.640248 -6.383571 215.90302 -14.296473 198.519806 -14.296473 C 179.37782 -14.296473 169.551978 -3.737547 166.28299 20.850655 L 165.81734 24.295835 C 162.548352 48.884037 172.018664 59.266772 191.138626 59.266772 Z M 258.790005 -13.028521 L 241.472863 -13.028521 L 232.200767 57.99882 L 249.499031 57.99882 Z M 328.904924 -13.028521 L 312.497057 -13.028521 L 309.139973 12.468957 L 307.853143 26.120679 L 293.380241 -13.028521 L 275.172701 -13.028521 L 265.878581 57.99882 L 282.264423 57.99882 L 285.552289 32.501341 L 286.911483 18.849619 L 301.406409 57.99882 L 319.61395 57.99882 Z M 328.904924 -13.028521 " transform="matrix(1.241544,0,0,1.241544,34.239793,105.304393)"/>
</g>
</svg>
