<?xml version="1.0" encoding="UTF-8"?>
<svg xmlns="http://www.w3.org/2000/svg" xmlns:xlink="http://www.w3.org/1999/xlink" width="525pt" height="299.999988pt" viewBox="0 0 525 299.999988" version="1.2">
<g id="surface1">
<path style="fill:none;stroke-width:2.618111;stroke-linecap:butt;stroke-linejoin:miter;stroke:rgb(100%,56.858826%,30.198669%);stroke-opacity:1;stroke-miterlimit:4;" d="M 27.686073 29.411691 C 37.335723 30.676497 39.069325 33.501859 38.691771 37.057159 L 38.600529 37.969581 C 38.244999 41.436785 35.598975 44.350244 29.687109 44.350244 L 28.774687 44.350244 C 22.862821 44.350244 20.216797 41.23857 21.217315 33.410617 L 3.91905 33.410617 L 3.720834 34.879931 C 1.631703 51.35387 10.567146 59.266772 27.862265 59.266772 C 44.603637 59.266772 54.630841 52.17505 56.097009 38.790761 L 56.276347 37.148402 C 57.808587 23.584775 51.072395 17.559643 35.866409 15.470511 C 26.484193 14.202559 24.951953 11.735873 25.307483 7.913139 L 25.395579 7.000717 C 25.773133 3.467441 28.686591 0.642079 33.689181 0.642079 L 34.598457 0.642079 C 40.979119 0.642079 42.803963 4.467959 41.690179 12.468957 L 59.010467 12.468957 L 59.277901 10.291729 C 61.278937 -5.914775 53.897757 -14.296473 36.155867 -14.296473 C 18.391952 -14.296473 9.189074 -5.738583 7.833026 6.824525 L 7.631664 8.466885 C 6.18752 21.297427 12.480087 27.410655 27.686073 29.411691 Z M 94.698756 -13.028521 L 77.378468 -13.028521 L 68.109518 57.99882 L 85.404636 57.99882 Z M 129.930834 59.266772 C 143.403218 59.266772 150.406844 55.355942 155.875084 50.907097 L 160.166615 18.472065 L 134.288436 18.472065 L 132.2874 33.410617 L 140.84529 33.410617 L 139.66858 42.525399 C 137.843736 43.525917 134.486652 44.350244 131.843774 44.350244 L 130.843256 44.350244 C 122.194124 44.350244 120.548618 36.701629 122.194124 24.295835 L 122.63775 20.850655 C 124.283256 8.558127 127.108618 0.642079 135.754604 0.642079 L 136.755122 0.642079 C 143.57941 0.642079 144.579928 6.088295 143.491314 14.293801 L 160.789579 14.293801 L 161.255228 10.735355 C 163.432456 -6.383571 154.695228 -14.296473 137.312014 -14.296473 C 118.170028 -14.296473 108.344186 -3.737547 105.075198 20.850655 L 104.609548 24.295835 C 101.34056 48.884037 110.810872 59.266772 129.930834 59.266772 Z M 233.553667 -13.028521 L 217.145801 -13.028521 L 213.788717 12.468957 L 212.501887 26.120679 L 198.028985 -13.028521 L 179.821445 -13.028521 L 170.527325 57.99882 L 186.913167 57.99882 L 190.201033 32.501341 L 191.557081 18.849619 L 206.052007 57.99882 L 224.259547 57.99882 Z M 291.539665 59.266772 C 312.125795 59.266772 318.575675 50.353352 320.485469 35.411653 L 326.866131 -13.028521 L 309.571013 -13.028521 L 303.278447 34.968027 C 302.545363 40.615606 300.100701 44.350244 292.540183 44.350244 C 284.982811 44.350244 284.337823 40.615606 285.070907 34.968027 L 291.363473 -13.028521 L 274.043184 -13.028521 L 267.687693 35.411653 C 265.774752 50.353352 270.953534 59.266772 291.539665 59.266772 Z M 353.546612 33.589955 L 360.729576 33.589955 C 372.75467 33.589955 386.604608 30.855835 389.228608 11.204151 L 389.518066 9.203115 C 392.142066 -10.473739 378.845874 -13.028521 366.842804 -13.028521 L 342.342698 -13.028521 L 333.048577 57.99882 L 350.346842 57.99882 Z M 355.459552 18.673427 L 357.728022 1.910031 L 365.640924 1.910031 C 369.020032 1.910031 372.578478 2.998645 371.93349 9.734837 L 371.845394 10.735355 C 371.200406 17.295355 366.751562 18.673427 363.372454 18.673427 Z M 355.459552 18.673427 " transform="matrix(1.241544,0,0,1.241544,19.239794,105.304393)"/>
</g>
</svg>
